<svg width="259" height="103" viewBox="0 0 259 103" fill="none" xmlns="http://www.w3.org/2000/svg">
<g filter="url(#filter0_d)">
<mask id="path-1-inside-1" fill="white">
<path d="M221.337 2H186.074H37.2923C31.7562 2 26.6701 5.04938 24.0616 9.93252L7.76933 40.4325C5.41022 44.8489 5.41022 50.1511 7.76933 54.5675L24.0617 85.0675C26.6701 89.9506 31.7562 93 37.2923 93H189.11H221.337C226.873 93 231.959 89.9506 234.568 85.0675L250.86 54.5675C253.219 50.1511 253.219 44.8489 250.86 40.4325L234.568 9.93252C231.959 5.04938 226.873 2 221.337 2Z"/>
</mask>
<path d="M221.337 2H186.074H37.2923C31.7562 2 26.6701 5.04938 24.0616 9.93252L7.76933 40.4325C5.41022 44.8489 5.41022 50.1511 7.76933 54.5675L24.0617 85.0675C26.6701 89.9506 31.7562 93 37.2923 93H189.11H221.337C226.873 93 231.959 89.9506 234.568 85.0675L250.86 54.5675C253.219 50.1511 253.219 44.8489 250.86 40.4325L234.568 9.93252C231.959 5.04938 226.873 2 221.337 2Z" fill="#827F81"/>
<path d="M234.568 9.93252L230.158 12.2883V12.2883L234.568 9.93252ZM250.86 40.4325L255.27 38.0767L255.27 38.0767L250.86 40.4325ZM250.86 54.5675L255.27 56.9233H255.27L250.86 54.5675ZM234.568 85.0675L230.158 82.7117L234.568 85.0675ZM24.0616 9.93252L28.4719 12.2883V12.2883L24.0616 9.93252ZM7.76933 40.4325L3.3591 38.0767L3.3591 38.0767L7.76933 40.4325ZM7.76933 54.5675L3.3591 56.9233L3.3591 56.9233L7.76933 54.5675ZM24.0617 85.0675L28.4719 82.7117H28.4719L24.0617 85.0675ZM186.074 7H221.337V-3H186.074V7ZM221.337 7C225.028 7 228.419 9.03293 230.158 12.2883L238.978 7.57669C235.5 1.06583 228.719 -3 221.337 -3V7ZM230.158 12.2883L246.45 42.7883L255.27 38.0767L238.978 7.57669L230.158 12.2883ZM246.45 42.7883C248.023 45.7326 248.023 49.2674 246.45 52.2117L255.27 56.9233C258.416 51.0348 258.416 43.9652 255.27 38.0767L246.45 42.7883ZM246.45 52.2117L230.158 82.7117L238.978 87.4233L255.27 56.9233L246.45 52.2117ZM230.158 82.7117C228.419 85.9671 225.028 88 221.337 88V98C228.719 98 235.5 93.9342 238.978 87.4233L230.158 82.7117ZM221.337 88H189.11V98H221.337V88ZM186.074 -3H37.2923V7H186.074V-3ZM37.2923 -3C29.9108 -3 23.1293 1.06584 19.6514 7.57669L28.4719 12.2883C30.2108 9.03292 33.6015 7 37.2923 7V-3ZM19.6514 7.57669L3.3591 38.0767L12.1795 42.7883L28.4719 12.2883L19.6514 7.57669ZM3.3591 38.0767C0.213634 43.9652 0.213634 51.0348 3.3591 56.9233L12.1796 52.2117C10.6068 49.2674 10.6068 45.7326 12.1796 42.7883L3.3591 38.0767ZM3.3591 56.9233L19.6514 87.4233L28.4719 82.7117L12.1795 52.2117L3.3591 56.9233ZM19.6514 87.4233C23.1294 93.9342 29.9108 98 37.2923 98V88C33.6015 88 30.2108 85.9671 28.4719 82.7117L19.6514 87.4233ZM37.2923 98H189.11V88H37.2923V98Z" fill="#DBDBDB" mask="url(#path-1-inside-1)"/>
</g>
<path opacity="0.7" d="M79.25 58.05V64H54.6V57.25H78.4V52.1H60.55V46.15H54.6V39.4H60.55V33.45H85.15V40.2H61.35V45.3H79.25V51.25H85.15V58.05H79.25ZM119.193 46.15V52.1H101.293V64H94.5434V33.45H119.193V39.4H125.093V46.15H119.193ZM118.343 40.2H101.293V45.3H118.343V40.2ZM134.487 64V57.25H146.337V40.2H134.487V33.45H165.037V40.2H153.137V57.25H165.037V64H134.487ZM198.23 64V58.05H192.23V52.1H186.28V46.15H181.18V64H174.43V33.45H181.18V39.4H187.13V45.3H193.08V51.25H198.23V33.45H204.98V64H198.23Z" fill="white"/>
<defs>
<filter id="filter0_d" x="0" y="0" width="258.629" height="103" filterUnits="userSpaceOnUse" color-interpolation-filters="sRGB">
<feFlood flood-opacity="0" result="BackgroundImageFix"/>
<feColorMatrix in="SourceAlpha" type="matrix" values="0 0 0 0 0 0 0 0 0 0 0 0 0 0 0 0 0 0 127 0"/>
<feOffset dy="4"/>
<feGaussianBlur stdDeviation="3"/>
<feColorMatrix type="matrix" values="0 0 0 0 0 0 0 0 0 0 0 0 0 0 0 0 0 0 0.25 0"/>
<feBlend mode="normal" in2="BackgroundImageFix" result="effect1_dropShadow"/>
<feBlend mode="normal" in="SourceGraphic" in2="effect1_dropShadow" result="shape"/>
</filter>
</defs>
</svg>
