<svg width="258" height="99" viewBox="0 0 258 99" fill="none" xmlns="http://www.w3.org/2000/svg">
<path fill-rule="evenodd" clip-rule="evenodd" d="M32.6206 0H187.554H190.713H224.408C230.043 0 235.203 3.15856 237.766 8.17724L255.387 42.6772C257.576 46.9625 257.576 52.0375 255.387 56.3228L237.766 90.8228C235.203 95.8414 230.043 99 224.408 99H190.713H187.554H32.6206C26.9852 99 21.8254 95.8414 19.2621 90.8228L1.64149 56.3228C-0.547161 52.0375 -0.547162 46.9625 1.64148 42.6772L19.2621 8.17724C21.8254 3.15856 26.9853 0 32.6206 0Z" fill="#00E0FF"/>
<mask id="path-2-inside-1" fill="white">
<path d="M220.347 4H185.084H36.3026C30.7664 4 25.6803 7.04938 23.0719 11.9325L6.77958 42.4325C4.42048 46.8489 4.42048 52.1511 6.77958 56.5675L23.0719 87.0675C25.6804 91.9506 30.7664 95 36.3026 95H185.084H220.347C225.884 95 230.97 91.9506 233.578 87.0675L249.87 56.5675C252.23 52.1511 252.23 46.8489 249.87 42.4325L233.578 11.9325C230.97 7.04938 225.884 4 220.347 4Z"/>
</mask>
<path d="M220.347 4H185.084H36.3026C30.7664 4 25.6803 7.04938 23.0719 11.9325L6.77958 42.4325C4.42048 46.8489 4.42048 52.1511 6.77958 56.5675L23.0719 87.0675C25.6804 91.9506 30.7664 95 36.3026 95H185.084H220.347C225.884 95 230.97 91.9506 233.578 87.0675L249.87 56.5675C252.23 52.1511 252.23 46.8489 249.87 42.4325L233.578 11.9325C230.97 7.04938 225.884 4 220.347 4Z" fill="#FF00B8"/>
<path d="M233.578 11.9325L229.168 14.2883V14.2883L233.578 11.9325ZM249.87 42.4325L254.281 40.0767L254.281 40.0767L249.87 42.4325ZM249.87 56.5675L254.281 58.9233H254.281L249.87 56.5675ZM233.578 87.0675L229.168 84.7117L233.578 87.0675ZM23.0719 11.9325L27.4821 14.2883V14.2883L23.0719 11.9325ZM6.77958 42.4325L2.36935 40.0767L2.36935 40.0767L6.77958 42.4325ZM6.77958 56.5675L2.36935 58.9233L2.36936 58.9233L6.77958 56.5675ZM23.0719 87.0675L27.4821 84.7117H27.4821L23.0719 87.0675ZM185.084 9H220.347V-1H185.084V9ZM220.347 9C224.038 9 227.429 11.0329 229.168 14.2883L237.988 9.57669C234.51 3.06583 227.729 -1 220.347 -1V9ZM229.168 14.2883L245.46 44.7883L254.281 40.0767L237.988 9.57669L229.168 14.2883ZM245.46 44.7883C247.033 47.7326 247.033 51.2674 245.46 54.2117L254.281 58.9233C257.426 53.0348 257.426 45.9652 254.281 40.0767L245.46 44.7883ZM245.46 54.2117L229.168 84.7117L237.988 89.4233L254.281 58.9233L245.46 54.2117ZM229.168 84.7117C227.429 87.9671 224.038 90 220.347 90V100C227.729 100 234.51 95.9342 237.988 89.4233L229.168 84.7117ZM220.347 90H185.084V100H220.347V90ZM185.084 -1H36.3026V9H185.084V-1ZM36.3026 -1C28.921 -1 22.1396 3.06584 18.6617 9.57669L27.4821 14.2883C29.2211 11.0329 32.6118 9 36.3026 9V-1ZM18.6617 9.57669L2.36935 40.0767L11.1898 44.7883L27.4821 14.2883L18.6617 9.57669ZM2.36935 40.0767C-0.776113 45.9652 -0.776113 53.0348 2.36935 58.9233L11.1898 54.2117C9.61707 51.2674 9.61707 47.7326 11.1898 44.7883L2.36935 40.0767ZM2.36936 58.9233L18.6617 89.4233L27.4821 84.7117L11.1898 54.2117L2.36936 58.9233ZM18.6617 89.4233C22.1396 95.9342 28.921 100 36.3026 100V90C32.6118 90 29.2211 87.9671 27.4821 84.7117L18.6617 89.4233ZM36.3026 100H185.084V90H36.3026V100Z" fill="#FBD2FF" mask="url(#path-2-inside-1)"/>
<path d="M78.2603 60.05V66H53.6103V59.25H77.4103V54.1H59.5603V48.15H53.6103V41.4H59.5603V35.45H84.1603V42.2H60.3603V47.3H78.2603V53.25H84.1603V60.05H78.2603ZM118.204 48.15V54.1H100.304V66H93.5536V35.45H118.204V41.4H124.104V48.15H118.204ZM117.354 42.2H100.304V47.3H117.354V42.2ZM133.497 66V59.25H145.347V42.2H133.497V35.45H164.047V42.2H152.147V59.25H164.047V66H133.497ZM197.24 66V60.05H191.24V54.1H185.29V48.15H180.19V66H173.44V35.45H180.19V41.4H186.14V47.3H192.09V53.25H197.24V35.45H203.99V66H197.24Z" fill="white"/>
</svg>
