<svg width="307" height="151" viewBox="0 0 307 151" fill="none" xmlns="http://www.w3.org/2000/svg">
<g filter="url(#filter0_d)">
<g filter="url(#filter1_d)">
<mask id="path-1-inside-1" fill="white">
<path d="M245.337 15H210.074H61.2923C55.7562 15 50.6701 18.0494 48.0616 22.9325L31.7693 53.4325C29.4102 57.8489 29.4102 63.1511 31.7693 67.5675L48.0617 98.0675C50.6701 102.951 55.7562 106 61.2923 106H210.074H245.337C250.873 106 255.959 102.951 258.568 98.0675L274.86 67.5675C277.219 63.1511 277.219 57.8489 274.86 53.4325L258.568 22.9325C255.959 18.0494 250.873 15 245.337 15Z"/>
</mask>
<path d="M245.337 15H210.074H61.2923C55.7562 15 50.6701 18.0494 48.0616 22.9325L31.7693 53.4325C29.4102 57.8489 29.4102 63.1511 31.7693 67.5675L48.0617 98.0675C50.6701 102.951 55.7562 106 61.2923 106H210.074H245.337C250.873 106 255.959 102.951 258.568 98.0675L274.86 67.5675C277.219 63.1511 277.219 57.8489 274.86 53.4325L258.568 22.9325C255.959 18.0494 250.873 15 245.337 15Z" fill="#8E0067"/>
<path d="M258.568 22.9325L254.158 25.2883V25.2883L258.568 22.9325ZM274.86 53.4325L279.27 51.0767L279.27 51.0767L274.86 53.4325ZM274.86 67.5675L279.27 69.9233H279.27L274.86 67.5675ZM258.568 98.0675L254.158 95.7117L258.568 98.0675ZM48.0616 22.9325L52.4719 25.2883V25.2883L48.0616 22.9325ZM31.7693 53.4325L27.3591 51.0767L27.3591 51.0767L31.7693 53.4325ZM31.7693 67.5675L27.3591 69.9233L27.3591 69.9233L31.7693 67.5675ZM48.0617 98.0675L52.4719 95.7117H52.4719L48.0617 98.0675ZM210.074 20H245.337V10H210.074V20ZM245.337 20C249.028 20 252.419 22.0329 254.158 25.2883L262.978 20.5767C259.5 14.0658 252.719 10 245.337 10V20ZM254.158 25.2883L270.45 55.7883L279.27 51.0767L262.978 20.5767L254.158 25.2883ZM270.45 55.7883C272.023 58.7326 272.023 62.2674 270.45 65.2117L279.27 69.9233C282.416 64.0348 282.416 56.9652 279.27 51.0767L270.45 55.7883ZM270.45 65.2117L254.158 95.7117L262.978 100.423L279.27 69.9233L270.45 65.2117ZM254.158 95.7117C252.419 98.9671 249.028 101 245.337 101V111C252.719 111 259.5 106.934 262.978 100.423L254.158 95.7117ZM245.337 101H210.074V111H245.337V101ZM210.074 10H61.2923V20H210.074V10ZM61.2923 10C53.9108 10 47.1293 14.0658 43.6514 20.5767L52.4719 25.2883C54.2108 22.0329 57.6015 20 61.2923 20V10ZM43.6514 20.5767L27.3591 51.0767L36.1795 55.7883L52.4719 25.2883L43.6514 20.5767ZM27.3591 51.0767C24.2136 56.9652 24.2136 64.0348 27.3591 69.9233L36.1796 65.2117C34.6068 62.2674 34.6068 58.7326 36.1796 55.7883L27.3591 51.0767ZM27.3591 69.9233L43.6514 100.423L52.4719 95.7117L36.1795 65.2117L27.3591 69.9233ZM43.6514 100.423C47.1294 106.934 53.9108 111 61.2923 111V101C57.6015 101 54.2108 98.9671 52.4719 95.7117L43.6514 100.423ZM61.2923 111H210.074V101H61.2923V111Z" fill="#C44CCE" mask="url(#path-1-inside-1)"/>
</g>
<path d="M103.25 71.05V77H78.6V70.25H102.4V65.1H84.55V59.15H78.6V52.4H84.55V46.45H109.15V53.2H85.35V58.3H103.25V64.25H109.15V71.05H103.25ZM143.193 59.15V65.1H125.293V77H118.543V46.45H143.193V52.4H149.093V59.15H143.193ZM142.343 53.2H125.293V58.3H142.343V53.2ZM158.487 77V70.25H170.337V53.2H158.487V46.45H189.037V53.2H177.137V70.25H189.037V77H158.487ZM222.23 77V71.05H216.23V65.1H210.28V59.15H205.18V77H198.43V46.45H205.18V52.4H211.13V58.3H217.08V64.25H222.23V46.45H228.98V77H222.23Z" fill="white"/>
</g>
<defs>
<filter id="filter0_d" x="0" y="0" width="306.629" height="151" filterUnits="userSpaceOnUse" color-interpolation-filters="sRGB">
<feFlood flood-opacity="0" result="BackgroundImageFix"/>
<feColorMatrix in="SourceAlpha" type="matrix" values="0 0 0 0 0 0 0 0 0 0 0 0 0 0 0 0 0 0 127 0"/>
<feOffset dy="15"/>
<feGaussianBlur stdDeviation="15"/>
<feColorMatrix type="matrix" values="0 0 0 0 0 0 0 0 0 0 0 0 0 0 0 0 0 0 0.45 0"/>
<feBlend mode="normal" in2="BackgroundImageFix" result="effect1_dropShadow"/>
<feBlend mode="normal" in="SourceGraphic" in2="effect1_dropShadow" result="shape"/>
</filter>
<filter id="filter1_d" x="24" y="13" width="258.629" height="103" filterUnits="userSpaceOnUse" color-interpolation-filters="sRGB">
<feFlood flood-opacity="0" result="BackgroundImageFix"/>
<feColorMatrix in="SourceAlpha" type="matrix" values="0 0 0 0 0 0 0 0 0 0 0 0 0 0 0 0 0 0 127 0"/>
<feOffset dy="4"/>
<feGaussianBlur stdDeviation="3"/>
<feColorMatrix type="matrix" values="0 0 0 0 0 0 0 0 0 0 0 0 0 0 0 0 0 0 0.25 0"/>
<feBlend mode="normal" in2="BackgroundImageFix" result="effect1_dropShadow"/>
<feBlend mode="normal" in="SourceGraphic" in2="effect1_dropShadow" result="shape"/>
</filter>
</defs>
</svg>
