<svg width="297" height="141" viewBox="0 0 297 141" fill="none" xmlns="http://www.w3.org/2000/svg">
<g filter="url(#filter0_d)">
<g filter="url(#filter1_d)">
<mask id="path-1-inside-1" fill="white">
<path d="M240.337 17H208.11H56.2923C50.7562 17 45.6701 20.0494 43.0616 24.9325L26.7693 55.4325C24.4102 59.8489 24.4102 65.1511 26.7693 69.5675L43.0617 100.067C45.6701 104.951 50.7562 108 56.2923 108H208.11H240.337C245.873 108 250.959 104.951 253.568 100.067L269.86 69.5675C272.219 65.1511 272.219 59.8489 269.86 55.4325L253.568 24.9325C250.959 20.0494 245.873 17 240.337 17Z"/>
</mask>
<path d="M240.337 17H208.11H56.2923C50.7562 17 45.6701 20.0494 43.0616 24.9325L26.7693 55.4325C24.4102 59.8489 24.4102 65.1511 26.7693 69.5675L43.0617 100.067C45.6701 104.951 50.7562 108 56.2923 108H208.11H240.337C245.873 108 250.959 104.951 253.568 100.067L269.86 69.5675C272.219 65.1511 272.219 59.8489 269.86 55.4325L253.568 24.9325C250.959 20.0494 245.873 17 240.337 17Z" fill="#FF00B8"/>
<path d="M253.568 24.9325L249.158 27.2883V27.2883L253.568 24.9325ZM269.86 55.4325L274.27 53.0767L274.27 53.0767L269.86 55.4325ZM269.86 69.5675L274.27 71.9233H274.27L269.86 69.5675ZM253.568 100.067L249.158 97.7117L253.568 100.067ZM43.0616 24.9325L47.4719 27.2883V27.2883L43.0616 24.9325ZM26.7693 55.4325L22.3591 53.0767L22.3591 53.0767L26.7693 55.4325ZM26.7693 69.5675L22.3591 71.9233L22.3591 71.9233L26.7693 69.5675ZM43.0617 100.067L47.4719 97.7117H47.4719L43.0617 100.067ZM208.11 22H240.337V12H208.11V22ZM240.337 22C244.028 22 247.419 24.0329 249.158 27.2883L257.978 22.5767C254.5 16.0658 247.719 12 240.337 12V22ZM249.158 27.2883L265.45 57.7883L274.27 53.0767L257.978 22.5767L249.158 27.2883ZM265.45 57.7883C267.023 60.7326 267.023 64.2674 265.45 67.2117L274.27 71.9233C277.416 66.0348 277.416 58.9652 274.27 53.0767L265.45 57.7883ZM265.45 67.2117L249.158 97.7117L257.978 102.423L274.27 71.9233L265.45 67.2117ZM249.158 97.7117C247.419 100.967 244.028 103 240.337 103V113C247.719 113 254.5 108.934 257.978 102.423L249.158 97.7117ZM240.337 103H208.11V113H240.337V103ZM208.11 12H56.2923V22H208.11V12ZM56.2923 12C48.9108 12 42.1293 16.0658 38.6514 22.5767L47.4719 27.2883C49.2108 24.0329 52.6015 22 56.2923 22V12ZM38.6514 22.5767L22.3591 53.0767L31.1795 57.7883L47.4719 27.2883L38.6514 22.5767ZM22.3591 53.0767C19.2136 58.9652 19.2136 66.0348 22.3591 71.9233L31.1796 67.2117C29.6068 64.2674 29.6068 60.7326 31.1796 57.7883L22.3591 53.0767ZM22.3591 71.9233L38.6514 102.423L47.4719 97.7117L31.1795 67.2117L22.3591 71.9233ZM38.6514 102.423C42.1294 108.934 48.9108 113 56.2923 113V103C52.6015 103 49.2108 100.967 47.4719 97.7117L38.6514 102.423ZM56.2923 113H208.11V103H56.2923V113Z" fill="#FBD2FF" mask="url(#path-1-inside-1)"/>
</g>
<path d="M98.25 73.05V79H73.6V72.25H97.4V67.1H79.55V61.15H73.6V54.4H79.55V48.45H104.15V55.2H80.35V60.3H98.25V66.25H104.15V73.05H98.25ZM138.193 61.15V67.1H120.293V79H113.543V48.45H138.193V54.4H144.093V61.15H138.193ZM137.343 55.2H120.293V60.3H137.343V55.2ZM153.487 79V72.25H165.337V55.2H153.487V48.45H184.037V55.2H172.137V72.25H184.037V79H153.487ZM217.23 79V73.05H211.23V67.1H205.28V61.15H200.18V79H193.43V48.45H200.18V54.4H206.13V60.3H212.08V66.25H217.23V48.45H223.98V79H217.23Z" fill="white"/>
</g>
<defs>
<filter id="filter0_d" x="0" y="0" width="296.629" height="141" filterUnits="userSpaceOnUse" color-interpolation-filters="sRGB">
<feFlood flood-opacity="0" result="BackgroundImageFix"/>
<feColorMatrix in="SourceAlpha" type="matrix" values="0 0 0 0 0 0 0 0 0 0 0 0 0 0 0 0 0 0 127 0"/>
<feOffset dy="8"/>
<feGaussianBlur stdDeviation="12.5"/>
<feColorMatrix type="matrix" values="0 0 0 0 0 0 0 0 0 0 0 0 0 0 0 0 0 0 0.4 0"/>
<feBlend mode="normal" in2="BackgroundImageFix" result="effect1_dropShadow"/>
<feBlend mode="normal" in="SourceGraphic" in2="effect1_dropShadow" result="shape"/>
</filter>
<filter id="filter1_d" x="19" y="15" width="258.629" height="103" filterUnits="userSpaceOnUse" color-interpolation-filters="sRGB">
<feFlood flood-opacity="0" result="BackgroundImageFix"/>
<feColorMatrix in="SourceAlpha" type="matrix" values="0 0 0 0 0 0 0 0 0 0 0 0 0 0 0 0 0 0 127 0"/>
<feOffset dy="4"/>
<feGaussianBlur stdDeviation="3"/>
<feColorMatrix type="matrix" values="0 0 0 0 0 0 0 0 0 0 0 0 0 0 0 0 0 0 0.25 0"/>
<feBlend mode="normal" in2="BackgroundImageFix" result="effect1_dropShadow"/>
<feBlend mode="normal" in="SourceGraphic" in2="effect1_dropShadow" result="shape"/>
</filter>
</defs>
</svg>
