<svg width="382" height="83" viewBox="0 0 382 83" fill="none" xmlns="http://www.w3.org/2000/svg">
<mask id="path-1-outside-1" maskUnits="userSpaceOnUse" x="0" y="0" width="382" height="83" fill="black">
<rect fill="white" width="382" height="83"/>
<path d="M350.439 5H323.93H31.4847C25.9486 5 20.8625 8.04938 18.2541 12.9325L6.76933 34.4325C4.41022 38.8489 4.41022 44.1511 6.76933 48.5675L18.2541 70.0675C20.8625 74.9506 25.9486 78 31.4847 78H323.93H350.439C355.976 78 361.062 74.9506 363.67 70.0675L375.155 48.5675C377.514 44.1511 377.514 38.8489 375.155 34.4325L363.67 12.9325C361.062 8.04938 355.976 5 350.439 5Z"/>
</mask>
<path d="M350.439 5H323.93H31.4847C25.9486 5 20.8625 8.04938 18.2541 12.9325L6.76933 34.4325C4.41022 38.8489 4.41022 44.1511 6.76933 48.5675L18.2541 70.0675C20.8625 74.9506 25.9486 78 31.4847 78H323.93H350.439C355.976 78 361.062 74.9506 363.67 70.0675L375.155 48.5675C377.514 44.1511 377.514 38.8489 375.155 34.4325L363.67 12.9325C361.062 8.04938 355.976 5 350.439 5Z" fill="white"/>
<path d="M363.67 12.9325L368.08 10.5767V10.5767L363.67 12.9325ZM375.155 34.4325L379.565 32.0767V32.0767L375.155 34.4325ZM375.155 48.5675L379.565 50.9233L375.155 48.5675ZM363.67 70.0675L359.26 67.7117V67.7117L363.67 70.0675ZM18.2541 12.9325L22.6643 15.2883L22.6643 15.2883L18.2541 12.9325ZM6.76933 34.4325L2.3591 32.0767L2.3591 32.0767L6.76933 34.4325ZM6.76933 48.5675L2.3591 50.9233L2.3591 50.9233L6.76933 48.5675ZM18.2541 70.0675L22.6643 67.7117L22.6643 67.7117L18.2541 70.0675ZM323.93 10H350.439V0H323.93V10ZM350.439 10C354.13 10 357.521 12.0329 359.26 15.2884L368.08 10.5767C364.602 4.06585 357.821 0 350.439 0V10ZM359.26 15.2883L370.745 36.7883L379.565 32.0767L368.08 10.5767L359.26 15.2883ZM370.745 36.7883C372.317 39.7326 372.317 43.2674 370.745 46.2117L379.565 50.9233C382.711 45.0348 382.711 37.9652 379.565 32.0767L370.745 36.7883ZM370.745 46.2117L359.26 67.7117L368.08 72.4233L379.565 50.9233L370.745 46.2117ZM359.26 67.7117C357.521 70.9671 354.13 73 350.439 73V83C357.821 83 364.602 78.9342 368.08 72.4233L359.26 67.7117ZM350.439 73H323.93V83H350.439V73ZM323.93 0H31.4847V10H323.93V0ZM31.4847 0C24.1032 0 17.3218 4.06583 13.8439 10.5767L22.6643 15.2883C24.4033 12.0329 27.794 10 31.4847 10V0ZM13.8439 10.5767L2.3591 32.0767L11.1795 36.7883L22.6643 15.2883L13.8439 10.5767ZM2.3591 32.0767C-0.786366 37.9652 -0.786366 45.0348 2.3591 50.9233L11.1796 46.2117C9.60682 43.2674 9.60682 39.7326 11.1796 36.7883L2.3591 32.0767ZM2.3591 50.9233L13.8439 72.4233L22.6643 67.7117L11.1795 46.2117L2.3591 50.9233ZM13.8439 72.4233C17.3218 78.9342 24.1032 83 31.4847 83V73C27.794 73 24.4033 70.9671 22.6643 67.7117L13.8439 72.4233ZM31.4847 83H323.93V73H31.4847V83Z" fill="#B0D2DA" mask="url(#path-1-outside-1)"/>
<path d="M260.715 47.787V51H247.404V47.355H260.256V44.574H250.617V41.361H247.404V37.716H250.617V34.503H263.901V38.148H251.049V40.902H260.715V44.115H263.901V47.787H260.715ZM274.292 51V47.787H271.106V41.361H267.893V37.716H271.106V34.503H274.751V37.716H281.204V41.361H274.751V47.355H284.39V51H274.292ZM291.596 51V47.787H288.383V40.902H291.596V37.716H304.88V51H291.596ZM301.235 41.361H292.028V47.355H301.235V41.361ZM321.724 44.574V41.361H312.517V51H308.872V37.716H322.183V40.902H325.369V44.574H321.724ZM335.761 51V47.787H332.575V41.361H329.362V37.716H332.575V34.503H336.22V37.716H342.673V41.361H336.22V47.355H345.859V51H335.761Z" fill="white"/>
<path d="M49.5 63C61.3741 63 71 53.3741 71 41.5C71 29.6259 61.3741 20 49.5 20C37.6259 20 28 29.6259 28 41.5C28 53.3741 37.6259 63 49.5 63Z" fill="#FFDB0C"/>
<path d="M71 41.5C71 53.3741 61.3741 63 49.5 63C49.5 57.2844 49.5 23.6854 49.5 20C61.3741 20 71 29.6259 71 41.5Z" fill="#FBBF00"/>
<path d="M49.5 57.6473C40.5963 57.6473 33.3527 50.4037 33.3527 41.5C33.3527 32.5963 40.5963 25.3527 49.5 25.3527C58.4037 25.3527 65.6473 32.5963 65.6473 41.5C65.6473 50.4037 58.4037 57.6473 49.5 57.6473Z" fill="#FBBF00"/>
<path d="M49.5 57.6473C49.5 49.8807 49.5 28.6001 49.5 25.3527C58.4037 25.3527 65.6473 32.5964 65.6473 41.5001C65.6473 50.4038 58.4037 57.6473 49.5 57.6473Z" fill="#FFA900"/>
<path d="M54.3736 41.5C55.2378 40.6735 55.7777 39.5107 55.7777 38.2233C55.7777 36.237 54.494 34.546 52.7131 33.9333V32.1118H50.1936V33.6868H48.8824V32.1118H46.3629V33.6868H44.3708V40.2402V42.7598V49.3132H46.3629V50.8882H48.8824V49.3132H50.1936V50.8882H52.7131V49.0667C54.494 48.454 55.7777 46.763 55.7777 44.7767C55.7778 43.4893 55.2378 42.3265 54.3736 41.5ZM46.8904 36.2064H51.2413C52.3534 36.2064 53.2582 37.1111 53.2582 38.2233C53.2582 39.3356 52.3534 40.2402 51.2413 40.2402H46.8904V36.2064ZM51.2413 46.7936H46.8904V42.7598H51.2413C52.3534 42.7598 53.2582 43.6645 53.2582 44.7767C53.2582 45.8889 52.3534 46.7936 51.2413 46.7936Z" fill="#FF8800"/>
<path d="M55.7777 38.2233C55.7777 36.237 54.494 34.546 52.7132 33.9333V32.1118H50.1936V33.6868H49.5V36.2064H51.2412C52.3534 36.2064 53.2582 37.1111 53.2582 38.2233C53.2582 39.3356 52.3534 40.2402 51.2412 40.2402H49.5V42.7598H51.2412C52.3534 42.7598 53.2582 43.6645 53.2582 44.7767C53.2582 45.8889 52.3535 46.7937 51.2412 46.7937H49.5V49.3132H50.1935V50.8883H52.7131V49.0668C54.494 48.4541 55.7777 46.763 55.7777 44.7768C55.7777 43.4895 55.2377 42.3266 54.3736 41.5001C55.2378 40.6735 55.7777 39.5107 55.7777 38.2233Z" fill="#E47700"/>
<defs>
<filter id="filter0_di" x="220" y="8" width="154.612" height="71" filterUnits="userSpaceOnUse" color-interpolation-filters="sRGB">
<feFlood flood-opacity="0" result="BackgroundImageFix"/>
<feColorMatrix in="SourceAlpha" type="matrix" values="0 0 0 0 0 0 0 0 0 0 0 0 0 0 0 0 0 0 127 0"/>
<feOffset dy="2"/>
<feGaussianBlur stdDeviation="1.5"/>
<feColorMatrix type="matrix" values="0 0 0 0 0.113517 0 0 0 0 0.0816667 0 0 0 0 0.204167 0 0 0 0.25 0"/>
<feBlend mode="normal" in2="BackgroundImageFix" result="effect1_dropShadow"/>
<feBlend mode="normal" in="SourceGraphic" in2="effect1_dropShadow" result="shape"/>
<feColorMatrix in="SourceAlpha" type="matrix" values="0 0 0 0 0 0 0 0 0 0 0 0 0 0 0 0 0 0 127 0" result="hardAlpha"/>
<feOffset dy="4"/>
<feGaussianBlur stdDeviation="0.5"/>
<feComposite in2="hardAlpha" operator="arithmetic" k2="-1" k3="1"/>
<feColorMatrix type="matrix" values="0 0 0 0 1 0 0 0 0 1 0 0 0 0 1 0 0 0 0.4 0"/>
<feBlend mode="normal" in2="shape" result="effect2_innerShadow"/>
</filter>
</defs>
</svg>
