<svg width="149" height="65" viewBox="0 0 149 65" fill="none" xmlns="http://www.w3.org/2000/svg">
<g filter="url(#filter0_i)">
<path d="M136.946 7.69087C134.296 2.94261 129.285 0 123.847 0H24.7651C19.3276 0 14.3159 2.9426 11.6663 7.69087L1.90128 25.1909C-0.633759 29.7339 -0.633759 35.2661 1.90128 39.8091L11.6663 57.3091C14.3159 62.0574 19.3276 65 24.7651 65H123.847C129.285 65 134.296 62.0574 136.946 57.3091L146.711 39.8091C149.246 35.2661 149.246 29.7339 146.711 25.1909L136.946 7.69087Z" fill="#827F81"/>
</g>
<path opacity="0.7" d="M37.715 39.787V43H24.404V39.355H37.256V36.574H27.617V33.361H24.404V29.716H27.617V26.503H40.901V30.148H28.049V32.902H37.715V36.115H40.901V39.787H37.715ZM51.2924 43V39.787H48.1064V33.361H44.8934V29.716H48.1064V26.503H51.7514V29.716H58.2044V33.361H51.7514V39.355H61.3904V43H51.2924ZM68.5958 43V39.787H65.3828V32.902H68.5958V29.716H81.8798V43H68.5958ZM78.2348 33.361H69.0278V39.355H78.2348V33.361ZM98.7242 36.574V33.361H89.5172V43H85.8722V29.716H99.1832V32.902H102.369V36.574H98.7242ZM112.761 43V39.787H109.575V33.361H106.362V29.716H109.575V26.503H113.22V29.716H119.673V33.361H113.22V39.355H122.859V43H112.761Z" fill="white"/>
<defs>
<filter id="filter0_i" x="0" y="0" width="148.612" height="66" filterUnits="userSpaceOnUse" color-interpolation-filters="sRGB">
<feFlood flood-opacity="0" result="BackgroundImageFix"/>
<feBlend mode="normal" in="SourceGraphic" in2="BackgroundImageFix" result="shape"/>
<feColorMatrix in="SourceAlpha" type="matrix" values="0 0 0 0 0 0 0 0 0 0 0 0 0 0 0 0 0 0 127 0" result="hardAlpha"/>
<feOffset dy="4"/>
<feGaussianBlur stdDeviation="0.5"/>
<feComposite in2="hardAlpha" operator="arithmetic" k2="-1" k3="1"/>
<feColorMatrix type="matrix" values="0 0 0 0 1 0 0 0 0 1 0 0 0 0 1 0 0 0 0.4 0"/>
<feBlend mode="normal" in2="shape" result="effect1_innerShadow"/>
</filter>
</defs>
</svg>
