<svg width="165" height="81" viewBox="0 0 165 81" fill="none" xmlns="http://www.w3.org/2000/svg">
<g filter="url(#filter0_di)">
<mask id="path-1-outside-1" maskUnits="userSpaceOnUse" x="3" y="1" width="159" height="75" fill="black">
<rect fill="white" x="3" y="1" width="159" height="75"/>
<path d="M144.946 13.6909C142.296 8.94261 137.285 6 131.847 6H32.7651C27.3276 6 22.3159 8.9426 19.6663 13.6909L9.90128 31.1909C7.36624 35.7339 7.36624 41.2661 9.90128 45.8091L19.6663 63.3091C22.3159 68.0574 27.3276 71 32.7651 71H131.847C137.285 71 142.296 68.0574 144.946 63.3091L154.711 45.8091C157.246 41.2661 157.246 35.7339 154.711 31.1909L144.946 13.6909Z"/>
</mask>
<path d="M144.946 13.6909C142.296 8.94261 137.285 6 131.847 6H32.7651C27.3276 6 22.3159 8.9426 19.6663 13.6909L9.90128 31.1909C7.36624 35.7339 7.36624 41.2661 9.90128 45.8091L19.6663 63.3091C22.3159 68.0574 27.3276 71 32.7651 71H131.847C137.285 71 142.296 68.0574 144.946 63.3091L154.711 45.8091C157.246 41.2661 157.246 35.7339 154.711 31.1909L144.946 13.6909Z" fill="#7341F0"/>
<path d="M144.946 13.6909L140.58 16.1272V16.1272L144.946 13.6909ZM154.711 31.1909L150.345 33.6273V33.6273L154.711 31.1909ZM154.711 45.8091L159.077 48.2455V48.2455L154.711 45.8091ZM144.946 63.3091L140.58 60.8728V60.8728L144.946 63.3091ZM19.6663 13.6909L15.3001 11.2545L15.3001 11.2545L19.6663 13.6909ZM9.90128 31.1909L14.2675 33.6273L14.2675 33.6272L9.90128 31.1909ZM9.90128 45.8091L14.2675 43.3728H14.2675L9.90128 45.8091ZM19.6663 63.3091L15.3001 65.7455L19.6663 63.3091ZM131.847 11C135.472 11 138.813 12.9617 140.58 16.1272L149.312 11.2545C145.779 4.92347 139.097 1 131.847 1V11ZM140.58 16.1272L150.345 33.6273L159.077 28.7545L149.312 11.2545L140.58 16.1272ZM150.345 33.6273C152.035 36.6559 152.035 40.3441 150.345 43.3728L159.077 48.2455C162.457 42.1881 162.457 34.8119 159.077 28.7545L150.345 33.6273ZM150.345 43.3728L140.58 60.8728L149.312 65.7455L159.077 48.2455L150.345 43.3728ZM140.58 60.8728C138.813 64.0383 135.472 66 131.847 66V76C139.097 76 145.779 72.0765 149.312 65.7455L140.58 60.8728ZM131.847 1H32.7651V11H131.847V1ZM32.7651 1C25.5151 1 18.8328 4.92347 15.3001 11.2545L24.0326 16.1272C25.7989 12.9617 29.1401 11 32.7651 11V1ZM15.3001 11.2545L5.53503 28.7545L14.2675 33.6272L24.0326 16.1272L15.3001 11.2545ZM5.53503 28.7545C2.15499 34.8119 2.15499 42.1881 5.53503 48.2455L14.2675 43.3728C12.5775 40.3441 12.5775 36.6559 14.2675 33.6273L5.53503 28.7545ZM5.53503 48.2455L15.3001 65.7455L24.0326 60.8728L14.2675 43.3728L5.53503 48.2455ZM15.3001 65.7455C18.8328 72.0765 25.5151 76 32.7651 76V66C29.1401 66 25.7989 64.0383 24.0326 60.8728L15.3001 65.7455ZM32.7651 76H131.847V66H32.7651V76Z" fill="#00E0FF" mask="url(#path-1-outside-1)"/>
</g>
<path d="M45.715 43.787V47H32.404V43.355H45.256V40.574H35.617V37.361H32.404V33.716H35.617V30.503H48.901V34.148H36.049V36.902H45.715V40.115H48.901V43.787H45.715ZM59.2924 47V43.787H56.1064V37.361H52.8934V33.716H56.1064V30.503H59.7514V33.716H66.2044V37.361H59.7514V43.355H69.3904V47H59.2924ZM76.5958 47V43.787H73.3828V36.902H76.5958V33.716H89.8798V47H76.5958ZM86.2348 37.361H77.0278V43.355H86.2348V37.361ZM106.724 40.574V37.361H97.5172V47H93.8722V33.716H107.183V36.902H110.369V40.574H106.724ZM120.761 47V43.787H117.575V37.361H114.362V33.716H117.575V30.503H121.22V33.716H127.673V37.361H121.22V43.355H130.859V47H120.761Z" fill="white"/>
<defs>
<filter id="filter0_di" x="0" y="0" width="164.612" height="81" filterUnits="userSpaceOnUse" color-interpolation-filters="sRGB">
<feFlood flood-opacity="0" result="BackgroundImageFix"/>
<feColorMatrix in="SourceAlpha" type="matrix" values="0 0 0 0 0 0 0 0 0 0 0 0 0 0 0 0 0 0 127 0"/>
<feOffset dy="2"/>
<feGaussianBlur stdDeviation="1.5"/>
<feColorMatrix type="matrix" values="0 0 0 0 0.113517 0 0 0 0 0.0816667 0 0 0 0 0.204167 0 0 0 0.25 0"/>
<feBlend mode="normal" in2="BackgroundImageFix" result="effect1_dropShadow"/>
<feBlend mode="normal" in="SourceGraphic" in2="effect1_dropShadow" result="shape"/>
<feColorMatrix in="SourceAlpha" type="matrix" values="0 0 0 0 0 0 0 0 0 0 0 0 0 0 0 0 0 0 127 0" result="hardAlpha"/>
<feOffset dy="4"/>
<feGaussianBlur stdDeviation="0.5"/>
<feComposite in2="hardAlpha" operator="arithmetic" k2="-1" k3="1"/>
<feColorMatrix type="matrix" values="0 0 0 0 1 0 0 0 0 1 0 0 0 0 1 0 0 0 0.4 0"/>
<feBlend mode="normal" in2="shape" result="effect2_innerShadow"/>
</filter>
</defs>
</svg>
