<svg width="155" height="71" viewBox="0 0 155 71" fill="none" xmlns="http://www.w3.org/2000/svg">
<g filter="url(#filter0_di)">
<path d="M139.946 8.69087C137.296 3.94261 132.285 1 126.847 1H27.7651C22.3276 1 17.3159 3.9426 14.6663 8.69087L4.90128 26.1909C2.36624 30.7339 2.36624 36.2661 4.90128 40.8091L14.6663 58.3091C17.3159 63.0574 22.3276 66 27.7651 66H126.847C132.285 66 137.296 63.0574 139.946 58.3091L149.711 40.8091C152.246 36.2661 152.246 30.7339 149.711 26.1909L139.946 8.69087Z" fill="#3F11B5"/>
</g>
<path d="M40.715 37.787V41H27.404V37.355H40.256V34.574H30.617V31.361H27.404V27.716H30.617V24.503H43.901V28.148H31.049V30.902H40.715V34.115H43.901V37.787H40.715ZM54.2924 41V37.787H51.1064V31.361H47.8934V27.716H51.1064V24.503H54.7514V27.716H61.2044V31.361H54.7514V37.355H64.3904V41H54.2924ZM71.5958 41V37.787H68.3828V30.902H71.5958V27.716H84.8798V41H71.5958ZM81.2348 31.361H72.0278V37.355H81.2348V31.361ZM101.724 34.574V31.361H92.5172V41H88.8722V27.716H102.183V30.902H105.369V34.574H101.724ZM115.761 41V37.787H112.575V31.361H109.362V27.716H112.575V24.503H116.22V27.716H122.673V31.361H116.22V37.355H125.859V41H115.761Z" fill="white"/>
<defs>
<filter id="filter0_di" x="0" y="0" width="154.612" height="71" filterUnits="userSpaceOnUse" color-interpolation-filters="sRGB">
<feFlood flood-opacity="0" result="BackgroundImageFix"/>
<feColorMatrix in="SourceAlpha" type="matrix" values="0 0 0 0 0 0 0 0 0 0 0 0 0 0 0 0 0 0 127 0"/>
<feOffset dy="2"/>
<feGaussianBlur stdDeviation="1.5"/>
<feColorMatrix type="matrix" values="0 0 0 0 0.113517 0 0 0 0 0.0816667 0 0 0 0 0.204167 0 0 0 0.25 0"/>
<feBlend mode="normal" in2="BackgroundImageFix" result="effect1_dropShadow"/>
<feBlend mode="normal" in="SourceGraphic" in2="effect1_dropShadow" result="shape"/>
<feColorMatrix in="SourceAlpha" type="matrix" values="0 0 0 0 0 0 0 0 0 0 0 0 0 0 0 0 0 0 127 0" result="hardAlpha"/>
<feOffset dy="4"/>
<feGaussianBlur stdDeviation="0.5"/>
<feComposite in2="hardAlpha" operator="arithmetic" k2="-1" k3="1"/>
<feColorMatrix type="matrix" values="0 0 0 0 1 0 0 0 0 1 0 0 0 0 1 0 0 0 0.4 0"/>
<feBlend mode="normal" in2="shape" result="effect2_innerShadow"/>
</filter>
</defs>
</svg>
